HIERARCHY
ROOT Hips
{
  OFFSET 0.000000 0.000000 0.000000
  CHANNELS 6 Xposition Yposition Zposition Zrotation Xrotation Yrotation
  JOINT RightUpLeg
  {
    OFFSET -5.925484 -8.982778 -1.393360
    CHANNELS 3 Zrotation Xrotation Yrotation
    JOINT RightLeg
    {
      OFFSET -15.472652 -36.258541 -7.272977
      CHANNELS 3 Zrotation Xrotation Yrotation
      JOINT RightFoot
      {
        OFFSET -2.233261 -29.726410 -30.653608
        CHANNELS 3 Zrotation Xrotation Yrotation
        JOINT RightToeBase
        {
          OFFSET -10.038224 -9.719216 5.946100
          CHANNELS 3 Zrotation Xrotation Yrotation
          End Site
          {
            OFFSET 0.000000 4.000000 0.000000
          }
        }
      }
    }
  }
  JOINT LeftUpLeg
  {
    OFFSET 6.087716 -8.423257 1.078902
    CHANNELS 3 Zrotation Xrotation Yrotation
    JOINT LeftLeg
    {
      OFFSET 10.740601 -33.867260 16.774494
      CHANNELS 3 Zrotation Xrotation Yrotation
      JOINT LeftFoot
      {
        OFFSET -0.572523 -43.247108 -3.095515
        CHANNELS 3 Zrotation Xrotation Yrotation
        JOINT LeftToeBase
        {
          OFFSET 7.781985 -3.191948 11.112802
          CHANNELS 3 Zrotation Xrotation Yrotation
          End Site
          {
            OFFSET 0.000000 4.000000 0.000000
          }
        }
      }
    }
  }
  JOINT Spine
  {
    OFFSET 1.086928 12.588387 -3.997429
    CHANNELS 3 Zrotation Xrotation Yrotation
    JOINT Spine1
    {
      OFFSET -0.906186 13.996768 2.163178
      CHANNELS 3 Zrotation Xrotation Yrotation
      JOINT Spine2
      {
        OFFSET -0.753718 4.386806 3.268196
        CHANNELS 3 Zrotation Xrotation Yrotation
        JOINT Neck
        {
          OFFSET -2.939755 21.932709 -1.868831
          CHANNELS 3 Zrotation Xrotation Yrotation
          JOINT Head
          {
            OFFSET -2.507011 7.054389 6.612314
            CHANNELS 3 Zrotation Xrotation Yrotation
            End Site
            {
              OFFSET 0.000000 4.000000 0.000000
            }
          }
        }
        JOINT RightShoulder
        {
          OFFSET -8.783918 10.989785 -3.762954
          CHANNELS 3 Zrotation Xrotation Yrotation
          JOINT RightArm
          {
            OFFSET -12.238085 -1.889825 0.663348
            CHANNELS 3 Zrotation Xrotation Yrotation
            JOINT RightForeArm
            {
              OFFSET -4.929964 -23.791063 7.423304
              CHANNELS 3 Zrotation Xrotation Yrotation
              JOINT RightHand
              {
                OFFSET 15.322134 -4.800904 20.738823
                CHANNELS 3 Zrotation Xrotation Yrotation
                End Site
                {
                  OFFSET 0.000000 4.000000 0.000000
                }
              }
            }
          }
        }
        JOINT LeftShoulder
        {
          OFFSET 5.669610 12.629843 -0.432127
          CHANNELS 3 Zrotation Xrotation Yrotation
          JOINT LeftArm
          {
            OFFSET 13.307339 1.102769 3.723055
            CHANNELS 3 Zrotation Xrotation Yrotation
            JOINT LeftForeArm
            {
              OFFSET 12.808953 -19.665039 0.551281
              CHANNELS 3 Zrotation Xrotation Yrotation
              JOINT LeftHand
              {
                OFFSET -9.546447 -11.720764 17.426720
                CHANNELS 3 Zrotation Xrotation Yrotation
                End Site
                {
                  OFFSET 0.000000 4.000000 0.000000
                }
              }
            }
          }
        }
      }
    }
  }
}
MOTION
Frames: 14
Frame Time: 0.050000
-12.603413 2.458340 177.761917 2.940992 -2.156328 1.171238 -0.221357 -16.465572 7.031256 -12.585359 11.413329 8.294040 40.744630 5.570775 -2.694007 -28.033225 -0.230766 -13.690904 3.081065 5.827434 2.624505 -4.127504 -3.737519 -4.300034 -2.344397 1.652477 2.573673 0.242791 -1.386877 -2.418385 -20.786291 7.361438 3.567926 -1.153504 -5.038186 10.369721 -1.528672 -1.145345 -16.626964 -6.689705 -14.154160 23.509797 30.870838 3.367073 -25.670763 -7.878937 -22.847589 51.446189 -23.444919 -5.104320 -60.452633 35.946997 47.748722 -40.892951 6.045157 1.841777 28.442795 33.920021 -1.528447 -4.783281 45.048796 -65.125834 -2.539851 10.198477 14.479757 106.845610 79.504926 47.339117 -114.833530
-10.136623 2.545190 179.754730 5.529963 -2.003809 2.024206 -0.783226 -18.868916 7.309856 -16.099328 15.216803 10.718338 39.523874 2.710651 -3.383722 -25.492608 0.229676 -12.962694 -0.381149 6.023748 1.541582 -5.342796 -1.168681 -3.911373 -0.619710 0.140450 3.459685 0.785987 -2.681291 -3.443995 -21.291753 9.519778 2.734371 -3.705279 -5.701109 10.759096 1.957037 -1.811733 -16.583949 -9.205873 -14.050058 22.543468 29.659316 2.522088 -24.906863 -7.044178 -24.415765 56.170013 -23.742615 -17.374567 -65.054739 27.925488 42.372889 -33.098828 -3.823735 7.790767 14.339882 29.989198 -2.798402 -3.546490 24.889780 -63.329464 -15.682206 12.449473 19.562854 98.065472 61.855609 50.056245 -103.419170
-7.996969 2.730685 181.473724 8.936498 -2.449501 3.245513 1.890854 -22.351940 8.278690 -19.329598 16.962151 8.707887 30.276095 -4.330511 10.931787 -16.238327 15.338504 -22.014451 -7.632324 9.243106 -0.452181 -2.501889 -0.358219 -2.603319 -0.926833 -3.041512 -2.484585 2.691621 -2.750320 2.393193 -20.625439 10.463258 0.878912 -3.903540 -9.151580 7.746153 3.183629 1.076369 -12.620395 -8.763189 -9.794520 18.692793 23.590425 2.790060 -19.871390 -11.024902 -20.578165 49.282921 -33.015776 -32.277462 -63.513781 49.132490 17.600563 -18.319020 -26.684717 37.887896 -14.009826 27.094741 -2.917942 0.126598 3.567125 -49.650204 -24.325144 12.761614 -14.739050 81.169583 64.376010 53.195848 -79.234937
-6.509016 3.430074 182.976852 8.872702 -2.066585 3.164239 2.775485 -23.592277 8.906149 -19.213325 13.580905 7.918322 37.099383 -0.610182 14.322370 -21.731696 18.717786 -26.263495 -7.976058 11.234994 0.151524 -2.615079 -2.447079 -3.220774 0.421227 -4.140599 -1.322611 1.761726 -1.969387 1.241505 -22.994950 8.705219 1.197996 -2.177712 -8.290967 8.148254 5.699191 3.332175 -12.477373 -11.032507 -11.933223 18.463118 24.362870 2.191815 -20.675070 -15.992439 -22.091614 43.116272 -38.948433 -19.013843 -60.205666 68.165370 14.984883 -19.872101 -24.887240 35.652950 -15.011348 34.433745 -6.516249 8.001596 26.448247 -41.979817 -13.898184 -43.236686 -46.766449 51.158479 52.477634 54.915367 -34.171664
-5.297607 4.628241 184.184311 6.164868 -0.614027 2.051451 5.539350 -24.111690 9.561786 -18.823278 11.042977 7.756451 43.781416 4.671877 10.971917 -29.443369 15.474310 -25.178653 -6.428795 11.349304 1.224859 -2.000153 -4.556430 -3.339857 -0.103753 -2.080081 0.443276 2.455345 -3.780969 -0.506091 -23.035473 4.846435 1.757580 -0.168559 -8.838563 8.004933 5.011080 6.408266 -12.468162 -9.733412 -12.318338 19.034238 24.880509 1.813883 -21.204997 -21.561187 -20.991076 33.223550 -40.462629 6.438886 -48.768877 80.691444 19.995388 -27.512917 -13.471353 17.450067 6.492061 44.976253 -6.561775 17.181407 49.571707 -34.177180 -8.845451 -99.140205 -47.481568 16.273705 35.550348 46.393859 -10.967643
-4.495877 5.926621 184.838181 3.930170 0.638964 1.176946 5.638449 -23.902650 9.676024 -16.170149 7.360960 6.463520 46.028471 7.568551 9.419937 -31.948848 14.815503 -25.232443 -5.196032 11.769160 2.267956 -1.777080 -7.161878 -3.576646 0.178825 0.295783 4.666585 2.213582 -5.535971 -4.681048 -22.209939 2.585169 2.165733 0.875138 -7.965425 8.274039 3.458932 6.462852 -12.794208 -9.009966 -8.699758 22.120286 24.730869 -2.892137 -22.419184 -22.083606 -21.166959 31.772409 -35.028477 17.646134 -44.348335 66.430052 39.233707 -35.652646 9.185587 0.463464 32.371109 49.599257 -6.706943 17.041049 58.464220 -26.961972 -6.890009 -120.746366 -60.869829 2.941784 49.994038 54.501408 -25.986224
-4.073960 6.708407 184.855515 3.094503 1.936673 0.769254 4.948656 -24.190120 9.602149 -14.251465 5.096116 5.408688 45.353720 9.418520 7.618593 -31.903035 13.472788 -24.282608 -4.827407 10.900729 2.591909 -1.574893 -8.690677 -3.554425 0.131198 2.121563 6.727424 2.064969 -6.404111 -6.712209 -21.876562 1.744329 2.272356 1.669246 -7.473655 8.174051 2.033659 5.586446 -12.795640 -8.103333 -7.458221 22.773793 24.314747 -4.101669 -22.444605 -21.108289 -20.867105 31.471473 -31.462615 19.515371 -43.379557 55.650398 48.737293 -36.665648 21.544142 -4.257723 43.780553 51.272378 -7.022546 15.437680 61.096532 -24.363343 -5.924353 -116.020452 -75.862566 13.532562 71.728013 58.465351 -54.005528
-3.830266 7.280117 184.590195 1.458637 2.318611 0.235239 5.090035 -23.593321 9.643427 -11.666573 1.620239 3.365420 43.823377 13.451291 4.391315 -31.732250 10.931039 -22.486639 -4.411321 9.873567 2.448508 -0.262564 -8.778392 -2.623664 -1.323646 4.656537 7.599061 3.092502 -8.522340 -7.396987 -18.556651 4.385370 3.117779 0.766108 -5.163448 8.649933 -0.987472 2.745349 -13.073443 -6.343725 -8.837189 22.306458 24.025743 -4.680589 -22.388317 -18.411810 -21.914708 29.963492 -27.127768 22.588594 -41.842601 44.356286 50.401270 -27.886903 29.360423 -8.348534 46.210371 47.411364 -9.599391 8.015593 63.201614 -34.459971 1.327030 -8.342881 -27.012693 128.590007 92.607786 44.166628 -120.732414
-3.935043 7.040024 183.908920 0.785608 2.577191 0.009311 5.903371 -23.957074 10.020168 -11.618299 -1.582148 3.238792 43.570980 15.297727 3.031806 -30.683990 11.786311 -22.808868 -3.965857 8.130118 2.045860 -0.219751 -6.526141 -1.957610 -1.352095 3.822031 5.581693 3.744894 -8.394149 -5.376718 -15.379342 7.273763 3.454012 0.145661 -3.613121 8.162860 -2.866418 1.763174 -11.979461 -5.104466 -11.834903 19.460286 22.542175 -3.700252 -20.892832 -18.612327 -22.699230 24.365902 -26.365370 23.319485 -38.249449 45.317888 41.411694 -22.411318 24.967487 -8.122639 40.637849 39.052439 -11.944170 3.624969 55.844542 -38.258211 1.154987 -4.916653 -1.575124 118.745419 73.673575 46.094885 -123.164732
-4.375722 6.155735 182.943207 0.691230 2.509996 -0.012492 6.565661 -24.152898 10.231241 -12.301558 -5.115627 3.701124 40.561002 15.954499 2.874795 -26.330819 14.103927 -23.445775 -4.413873 6.708332 1.262180 1.308991 -3.401747 -1.013160 -2.569335 1.514028 1.034891 4.790234 -7.441193 -0.879674 -12.435144 9.736376 3.319628 0.377637 -4.354604 6.371911 -5.953197 2.014851 -9.850434 -2.166632 -11.602931 16.833301 19.295847 -3.358730 -18.127619 -18.474673 -21.793814 19.540789 -27.554763 22.421060 -34.612532 52.185682 29.668007 -20.743918 15.486696 -3.706635 34.490249 32.484153 -12.225806 0.192608 48.117539 -36.744810 -0.640105 -1.285375 -5.533273 105.236028 60.271362 49.892309 -104.977828
-4.871461 5.486721 182.066833 0.959770 1.585377 0.155400 7.987733 -23.964807 10.447781 -12.910424 -3.937278 2.703086 35.161920 14.041410 7.915207 -21.653309 17.240617 -24.966343 -5.184870 6.136414 0.351012 2.554900 -0.388895 -0.175440 -3.997772 0.098100 -2.864058 6.039438 -7.139566 2.967164 -10.636484 11.433683 2.970234 0.507787 -5.426950 5.001319 -6.886318 3.289486 -7.817304 -0.481029 -12.578223 13.796876 16.644593 -1.677359 -15.377975 -19.657159 -19.290212 12.354265 -29.211320 20.029163 -29.184180 63.699959 12.497768 -14.740231 1.034168 5.316612 25.412622 24.243342 -11.578891 -1.996455 36.510755 -35.057178 -4.293162 -3.653689 -22.209600 80.264361 46.897263 51.257698 -69.379203
-5.532569 4.543197 181.419632 0.920612 -1.174263 0.402143 8.772978 -23.213146 10.941289 -10.634799 7.991899 -1.897210 26.021276 8.950938 12.979661 -18.527109 13.853343 -21.268954 -6.153236 9.304790 0.069146 4.901323 0.773362 0.283333 -5.928258 -2.098384 -8.598101 7.175836 -5.774896 8.480499 -7.787013 12.802394 2.252694 1.276509 -6.374496 2.824057 -9.319541 4.480428 -4.765971 3.962410 -13.718842 8.341045 11.639767 2.994560 -9.583171 -16.528490 -13.974755 5.217851 -28.891784 9.822171 -23.217672 77.146489 -13.744010 -8.821286 -23.674069 25.522485 23.575186 18.072281 -9.021763 -7.559677 22.454920 -35.333600 -6.016866 -22.425381 -38.129003 39.166902 48.896584 53.609439 -31.923483
-6.452579 3.474259 181.010956 1.061091 -2.777786 0.598442 5.850197 -20.687754 9.926968 -6.251112 18.328876 -4.834195 21.491235 5.796562 8.168946 -18.751983 3.324114 -12.494559 -6.506079 11.723719 0.271751 6.122289 0.720216 0.171951 -6.449257 -4.374072 -10.798775 6.613410 -4.109753 10.449808 -5.712531 9.930839 1.151347 2.356333 -5.611890 0.772059 -12.649573 5.144103 -1.868584 7.464621 -16.341991 3.721553 8.366890 9.563684 -4.661484 -14.240483 -9.681777 2.852546 -30.260139 -2.666742 -22.485526 93.555806 -25.686156 2.978184 -45.171620 43.038035 20.896005 19.274165 -6.229404 -18.217324 8.447264 -50.888575 -9.547052 -40.006640 -45.078040 13.074513 90.075331 68.323363 -34.563881
-7.990608 3.138596 180.519699 0.867613 -3.504889 0.599343 1.541229 -16.732155 8.316554 -2.748642 18.412164 -4.450695 17.367215 5.057619 1.583906 -14.501641 -2.278244 -5.989936 -5.548284 12.092072 0.496361 6.355034 1.124856 -0.187776 -7.056924 -5.426484 -11.671854 6.109353 -3.136323 11.232790 -3.706411 6.841128 0.370875 3.276998 -4.592356 -1.090229 -14.932503 3.958284 0.351196 8.631751 -15.886432 1.299283 6.298960 12.989414 -1.768448 -13.608330 -5.999245 3.265789 -34.895333 -10.456653 -24.664131 97.046696 -24.512571 1.899221 -48.378549 47.119647 17.316707 23.703579 -5.089456 -24.925106 -3.109331 -65.329138 -17.111650 -26.702404 -43.558137 25.730430 117.155971 69.638453 -56.114376
